<svg width="504" height="843" viewBox="0 0 504 843" fill="none" xmlns="http://www.w3.org/2000/svg">
<g filter="url(#filter0_d_154_217)">
<path d="M-47.8386 483.929C-47.937 483.929 -48.0348 483.903 -48.1232 483.852L-155.427 421.848C-155.622 421.756 -155.761 421.561 -155.761 421.335V359.325C-155.761 359.121 -155.652 358.934 -155.476 358.832C-155.3 358.73 -155.084 358.73 -154.907 358.832L6.12328 451.862C6.29939 451.964 6.40787 452.151 6.40787 452.355C6.40787 452.559 6.29939 452.747 6.12328 452.848L-47.554 483.854C-47.6417 483.905 -47.7401 483.93 -47.8386 483.93V483.929ZM-154.623 420.997L-47.8386 482.702L4.70029 452.354L-154.623 360.31V420.997Z" fill="url(#paint0_linear_154_217)"/>
<path d="M-101.515 576.973C-101.614 576.973 -101.711 576.948 -101.8 576.897L-155.476 545.878C-155.652 545.776 -155.761 545.588 -155.761 545.385C-155.761 545.181 -155.652 544.993 -155.476 544.892L4.70026 452.354L-155.476 359.817C-155.652 359.715 -155.761 359.527 -155.761 359.324C-155.761 359.12 -155.652 358.917 -155.476 358.816L-101.8 327.811C-101.624 327.709 -101.407 327.709 -101.231 327.811L113.476 451.861C113.652 451.963 113.761 452.151 113.761 452.355C113.761 452.558 113.652 452.746 113.476 452.848L-101.231 576.897C-101.319 576.948 -101.417 576.974 -101.515 576.974V576.973ZM-154.054 545.385L-101.515 575.746L112.054 452.354L-101.515 328.961L-154.067 359.316L6.12256 451.861C6.29868 451.963 6.40715 452.15 6.40715 452.354C6.40715 452.558 6.29868 452.745 6.12256 452.847L-154.055 545.385H-154.054Z" fill="url(#paint1_linear_154_217)"/>
<path d="M-101.515 638.984C-101.614 638.984 -101.711 638.959 -101.8 638.908C-101.976 638.806 -102.084 638.619 -102.084 638.415V576.403C-102.084 576.2 -101.976 576.012 -101.8 575.91L112.907 451.861C113.083 451.759 113.3 451.759 113.476 451.861C113.652 451.962 113.761 452.15 113.761 452.354V514.379C113.761 514.623 113.608 514.83 113.393 514.911L-101.23 638.907C-101.318 638.958 -101.416 638.984 -101.515 638.984L-101.515 638.984ZM-100.947 576.732V637.429L112.623 514.042V453.34L-100.947 576.732Z" fill="url(#paint2_linear_154_217)"/>
<g opacity="0.4">
<path d="M-101.194 328.332V328.347L59.836 421.377H59.8507L220.866 328.347L59.836 235.302L-101.194 328.332Z" fill="url(#paint3_linear_154_217)"/>
</g>
<path d="M274.864 359.9C274.767 359.9 274.668 359.874 274.58 359.824L167.274 297.818C167.08 297.726 166.941 297.531 166.941 297.306V235.295C166.941 235.092 167.05 234.904 167.226 234.802C167.402 234.7 167.619 234.7 167.795 234.802L328.825 327.832C329.002 327.934 329.11 328.122 329.11 328.326C329.11 328.529 329.002 328.717 328.825 328.819L275.149 359.824C275.061 359.874 274.963 359.9 274.864 359.9ZM168.08 296.969L274.864 358.674L327.403 328.326L168.08 236.282V296.969Z" fill="url(#paint4_linear_154_217)"/>
<path d="M221.188 452.944C221.09 452.944 220.991 452.919 220.903 452.868L167.227 421.849C167.05 421.747 166.942 421.56 166.942 421.356C166.942 421.152 167.05 420.965 167.227 420.863L327.403 328.325L167.227 235.788C167.05 235.686 166.942 235.499 166.942 235.295C166.942 235.091 167.05 234.888 167.227 234.787L220.903 203.782C221.079 203.68 221.296 203.68 221.472 203.782L436.179 327.833C436.355 327.934 436.464 328.122 436.464 328.326C436.464 328.529 436.355 328.717 436.179 328.819L221.472 452.869C221.385 452.92 221.286 452.944 221.188 452.944ZM168.648 421.356L221.187 451.717L434.757 328.325L221.187 204.932L168.635 235.287L328.825 327.833C329.002 327.934 329.11 328.122 329.11 328.326C329.11 328.529 329.002 328.717 328.825 328.819L168.648 421.357V421.356Z" fill="url(#paint5_linear_154_217)"/>
<path d="M221.188 514.956C221.09 514.956 220.991 514.93 220.903 514.879C220.727 514.777 220.618 514.59 220.618 514.386V452.375C220.618 452.171 220.727 451.983 220.903 451.881L435.61 327.832C435.786 327.73 436.003 327.73 436.179 327.832C436.355 327.934 436.464 328.121 436.464 328.325V390.35C436.464 390.593 436.311 390.801 436.096 390.883L221.472 514.879C221.385 514.93 221.286 514.955 221.188 514.955V514.956ZM221.756 452.704V513.4L435.325 390.013V329.312L221.756 452.704Z" fill="url(#paint6_linear_154_217)"/>
<path d="M221.188 514.956C221.09 514.956 220.991 514.93 220.903 514.879L167.275 483.893C167.081 483.802 166.942 483.607 166.942 483.381V421.356C166.942 421.152 167.05 420.965 167.227 420.863C167.403 420.761 167.62 420.761 167.796 420.863L221.472 451.882C221.648 451.984 221.757 452.172 221.757 452.375V514.386C221.757 514.59 221.648 514.778 221.472 514.879C221.385 514.93 221.286 514.956 221.188 514.956ZM168.08 483.044L220.619 513.4V452.704L168.08 422.342V483.044Z" fill="url(#paint7_linear_154_217)"/>
<path d="M59.5299 421.926C59.4301 421.926 59.317 421.899 59.2306 421.849L-101.8 328.819C-101.976 328.717 -102.084 328.53 -102.084 328.326C-102.084 328.122 -101.976 327.919 -101.8 327.818L59.2306 234.788C59.4067 234.686 59.6237 234.686 59.7998 234.788L220.83 327.833C221.006 327.935 221.115 328.123 221.115 328.326C221.115 328.53 221.006 328.718 220.83 328.82L59.8145 421.85C59.7281 421.9 59.6297 421.926 59.5299 421.926ZM-100.391 328.318L59.5219 420.703L219.408 328.326L59.5152 235.938L-100.391 328.318Z" fill="url(#paint8_linear_154_217)"/>
<path d="M59.5152 483.95C59.4174 483.95 59.319 483.925 59.2306 483.874C59.0544 483.772 58.946 483.584 58.946 483.381V421.356C58.946 421.113 59.0987 420.905 59.3136 420.823L220.26 327.832C220.436 327.731 220.653 327.731 220.829 327.832C221.006 327.934 221.114 328.122 221.114 328.326V390.351C221.114 390.554 221.006 390.742 220.829 390.844L59.7991 483.874C59.7114 483.925 59.6129 483.95 59.5145 483.95H59.5152ZM60.0837 421.694V482.395L219.976 390.022V329.312L60.0837 421.694Z" fill="url(#paint9_linear_154_217)"/>
<path d="M59.5152 483.95C59.4174 483.95 59.319 483.925 59.2306 483.874L-101.8 390.844C-101.976 390.742 -102.084 390.554 -102.084 390.351V328.326C-102.084 328.122 -101.976 327.934 -101.8 327.832C-101.624 327.731 -101.407 327.731 -101.231 327.832L59.7998 420.863C59.9759 420.965 60.0844 421.152 60.0844 421.356V483.381C60.0844 483.584 59.9759 483.772 59.7998 483.874C59.7121 483.925 59.6136 483.95 59.5152 483.95ZM-100.947 390.022L58.946 482.395V421.685L-100.947 329.312V390.022Z" fill="url(#paint10_linear_154_217)"/>
<path d="M167.19 173.853C167.092 173.853 166.994 173.827 166.905 173.777L59.6009 111.772C59.4067 111.68 59.2674 111.485 59.2674 111.259V49.249C59.2674 49.0453 59.3759 48.8577 59.552 48.7558C59.7281 48.654 59.9451 48.654 60.1212 48.7558L221.152 141.786C221.328 141.888 221.436 142.076 221.436 142.279C221.436 142.483 221.328 142.671 221.152 142.772L167.475 173.777C167.387 173.828 167.289 173.854 167.19 173.854L167.19 173.853ZM60.4051 110.922L167.19 172.627L219.729 142.279L60.4051 50.2348V110.922Z" fill="url(#paint11_linear_154_217)"/>
<path d="M113.513 266.898C113.415 266.898 113.316 266.872 113.228 266.821L59.5513 235.802C59.3752 235.7 59.2668 235.513 59.2668 235.309C59.2668 235.105 59.3752 234.917 59.5513 234.816L219.728 142.278L59.5513 49.7409C59.3752 49.6391 59.2668 49.4514 59.2668 49.2477C59.2668 49.044 59.3752 48.841 59.5513 48.7398L113.228 17.7351C113.404 17.6332 113.621 17.6332 113.797 17.7351L328.504 141.785C328.68 141.887 328.789 142.075 328.789 142.279C328.789 142.482 328.68 142.67 328.504 142.772L113.797 266.821C113.709 266.872 113.611 266.898 113.513 266.898ZM60.9737 235.309L113.513 265.672L327.082 142.279L113.513 18.8863L60.961 49.2417L221.151 141.787C221.327 141.889 221.435 142.076 221.435 142.28C221.435 142.484 221.327 142.671 221.151 142.773L60.9737 235.311V235.309Z" fill="url(#paint12_linear_154_217)"/>
<path d="M113.512 328.909C113.415 328.909 113.316 328.883 113.228 328.832C113.052 328.73 112.943 328.543 112.943 328.339V266.328C112.943 266.125 113.052 265.937 113.228 265.835L327.935 141.785C328.111 141.684 328.328 141.684 328.504 141.785C328.68 141.887 328.789 142.075 328.789 142.279V204.303C328.789 204.547 328.636 204.755 328.421 204.836L113.797 328.832C113.709 328.883 113.611 328.909 113.512 328.909ZM114.082 266.657V327.354L327.651 203.967V143.266L114.082 266.658V266.657Z" fill="url(#paint13_linear_154_217)"/>
<path d="M113.513 328.909C113.415 328.909 113.317 328.883 113.229 328.832L59.6002 297.846C59.406 297.755 59.2668 297.56 59.2668 297.334V235.309C59.2668 235.105 59.3752 234.918 59.5513 234.816C59.7275 234.714 59.9444 234.714 60.1206 234.816L113.797 265.835C113.973 265.937 114.082 266.125 114.082 266.328V328.339C114.082 328.543 113.973 328.73 113.797 328.832C113.709 328.883 113.612 328.909 113.513 328.909ZM60.4052 296.997L112.944 327.354V266.657L60.4052 236.295V296.997Z" fill="url(#paint14_linear_154_217)"/>
<path d="M-48.1446 235.879C-48.2444 235.879 -48.3569 235.853 -48.444 235.803L-209.474 142.773C-209.65 142.671 -209.759 142.483 -209.759 142.279C-209.759 142.076 -209.65 141.873 -209.474 141.771L-48.444 48.7419C-48.2678 48.6401 -48.0516 48.6401 -47.8748 48.7419L113.156 141.787C113.332 141.889 113.44 142.076 113.44 142.28C113.44 142.484 113.332 142.671 113.156 142.773L-47.86 235.803C-47.9464 235.854 -48.0449 235.88 -48.1446 235.88V235.879ZM-208.065 142.271L-48.1526 234.656L111.733 142.279L-48.16 49.8912L-208.065 142.271Z" fill="url(#paint15_linear_154_217)"/>
<path d="M-48.1594 297.903C-48.2578 297.903 -48.3556 297.878 -48.444 297.827C-48.6201 297.725 -48.7286 297.537 -48.7286 297.334V235.309C-48.7286 235.066 -48.5759 234.858 -48.361 234.776L112.586 141.785C112.762 141.684 112.979 141.684 113.155 141.785C113.331 141.887 113.439 142.075 113.439 142.279V204.303C113.439 204.507 113.331 204.695 113.155 204.797L-47.8754 297.827C-47.9638 297.878 -48.0616 297.903 -48.1601 297.903H-48.1594ZM-47.5908 235.647V296.348L112.302 203.975V143.265L-47.5908 235.647Z" fill="url(#paint16_linear_154_217)"/>
<path d="M328.862 577.24C328.765 577.24 328.666 577.214 328.578 577.163L221.273 515.158C221.079 515.066 220.94 514.871 220.94 514.645V452.635C220.94 452.432 221.048 452.244 221.225 452.142C221.401 452.04 221.618 452.04 221.794 452.142L382.824 545.172C383 545.274 383.109 545.462 383.109 545.665C383.109 545.869 383 546.057 382.824 546.159L329.148 577.163C329.06 577.214 328.961 577.24 328.862 577.24ZM222.078 514.309L328.862 576.013L381.401 545.666L222.078 453.622V514.309Z" fill="url(#paint17_linear_154_217)"/>
<path d="M275.185 670.285C275.087 670.285 274.989 670.259 274.9 670.208L221.224 639.189C221.048 639.087 220.939 638.9 220.939 638.696C220.939 638.492 221.048 638.304 221.224 638.203L381.4 545.666L221.224 453.129C221.048 453.027 220.939 452.839 220.939 452.635C220.939 452.432 221.048 452.229 221.224 452.127L274.9 421.122C275.077 421.02 275.294 421.02 275.47 421.122L490.177 545.172C490.353 545.274 490.461 545.462 490.461 545.666C490.461 545.869 490.353 546.057 490.177 546.159L275.47 670.208C275.382 670.259 275.283 670.285 275.185 670.285ZM222.646 638.696L275.185 669.059L488.755 545.666L275.185 422.273L222.633 452.629L382.823 545.174C382.999 545.276 383.108 545.463 383.108 545.667C383.108 545.871 382.999 546.058 382.823 546.16L222.646 638.696Z" fill="url(#paint18_linear_154_217)"/>
<path d="M275.185 732.296C275.087 732.296 274.989 732.27 274.901 732.219C274.724 732.117 274.616 731.93 274.616 731.726V669.715C274.616 669.512 274.724 669.324 274.901 669.222L489.607 545.172C489.783 545.07 490.001 545.07 490.177 545.172C490.353 545.274 490.461 545.462 490.461 545.666V607.69C490.461 607.934 490.309 608.141 490.094 608.223L275.47 732.219C275.382 732.27 275.284 732.296 275.185 732.296ZM275.754 670.044V730.74L489.323 607.353V546.651L275.754 670.044V670.044Z" fill="url(#paint19_linear_154_217)"/>
<path d="M275.186 732.296C275.088 732.296 274.989 732.27 274.901 732.219L221.273 701.233C221.079 701.141 220.939 700.946 220.939 700.721V638.696C220.939 638.492 221.048 638.304 221.224 638.203C221.4 638.101 221.617 638.101 221.793 638.203L275.47 669.222C275.646 669.324 275.754 669.512 275.754 669.715V731.726C275.754 731.93 275.646 732.117 275.47 732.219C275.382 732.27 275.284 732.296 275.186 732.296ZM222.078 700.384L274.616 730.74V670.044L222.078 639.682V700.384Z" fill="url(#paint20_linear_154_217)"/>
<path d="M113.527 639.265C113.427 639.265 113.315 639.239 113.229 639.189L-47.8018 546.159C-47.9779 546.057 -48.0864 545.869 -48.0864 545.666C-48.0864 545.462 -47.9779 545.259 -47.8018 545.157L113.229 452.127C113.405 452.026 113.622 452.026 113.798 452.127L274.827 545.172C275.004 545.274 275.112 545.462 275.112 545.666C275.112 545.869 275.004 546.057 274.827 546.159L113.812 639.189C113.725 639.239 113.627 639.265 113.527 639.265ZM-46.3928 545.658L113.52 638.042L273.405 545.666L113.513 453.278L-46.3935 545.658H-46.3928Z" fill="url(#paint21_linear_154_217)"/>
<path d="M113.513 701.29C113.415 701.29 113.317 701.265 113.229 701.214C113.052 701.112 112.944 700.924 112.944 700.721V638.696C112.944 638.452 113.097 638.245 113.311 638.164L274.258 545.172C274.434 545.07 274.651 545.07 274.827 545.172C275.004 545.274 275.112 545.462 275.112 545.666V607.69C275.112 607.894 275.004 608.082 274.827 608.184L113.798 701.214C113.71 701.265 113.612 701.29 113.513 701.29ZM114.082 639.033V699.736L273.974 607.363V546.653L114.082 639.033Z" fill="url(#paint22_linear_154_217)"/>
<path d="M113.513 701.29C113.415 701.29 113.317 701.265 113.229 701.214L-47.8018 608.184C-47.9779 608.082 -48.0864 607.894 -48.0864 607.69V545.666C-48.0864 545.462 -47.9779 545.274 -47.8018 545.172C-47.6257 545.07 -47.4094 545.07 -47.2326 545.172L113.798 638.203C113.974 638.304 114.082 638.492 114.082 638.696V700.721C114.082 700.924 113.974 701.112 113.798 701.214C113.71 701.265 113.612 701.29 113.513 701.29ZM-46.9487 607.362L112.944 699.735V639.025L-46.9487 546.652V607.362Z" fill="url(#paint23_linear_154_217)"/>
<g opacity="0.4">
<path d="M221.508 638.71V638.696L382.539 545.665L221.508 452.635L275.186 421.616L489.893 545.665L275.186 669.715L221.508 638.71Z" fill="url(#paint24_linear_154_217)"/>
</g>
<path d="M-209.19 763.33C-209.288 763.33 -209.386 763.304 -209.474 763.253L-263.151 732.234C-263.327 732.132 -263.436 731.944 -263.436 731.741C-263.436 731.537 -263.327 731.349 -263.151 731.248L-102.974 638.71L-263.151 546.173C-263.327 546.072 -263.436 545.884 -263.436 545.68C-263.436 545.477 -263.327 545.274 -263.151 545.172L-209.474 514.167C-209.298 514.065 -209.081 514.065 -208.905 514.167L5.80173 638.217C5.97784 638.319 6.0863 638.507 6.0863 638.71C6.0863 638.914 5.97784 639.102 5.80173 639.204L-208.905 763.253C-208.994 763.304 -209.091 763.33 -209.19 763.33ZM-261.729 731.741L-209.189 762.103L4.38007 638.71L-209.189 515.318L-261.741 545.673L-101.551 638.218C-101.375 638.32 -101.267 638.507 -101.267 638.711C-101.267 638.915 -101.375 639.102 -101.551 639.204L-261.729 731.741Z" fill="url(#paint25_linear_154_217)"/>
<path d="M-209.19 825.34C-209.288 825.34 -209.386 825.315 -209.474 825.264C-209.65 825.162 -209.759 824.975 -209.759 824.771V762.76C-209.759 762.556 -209.65 762.369 -209.474 762.267L5.23254 638.217C5.40866 638.115 5.62561 638.115 5.80173 638.217C5.97783 638.319 6.0863 638.507 6.0863 638.71V700.735C6.0863 700.979 5.93367 701.186 5.7187 701.268L-208.905 825.264C-208.993 825.315 -209.091 825.34 -209.189 825.34H-209.19ZM-208.621 763.088V823.784L4.94861 700.398V639.696L-208.621 763.088Z" fill="url(#paint26_linear_154_217)"/>
</g>
<defs>
<filter id="filter0_d_154_217" x="-550" y="0" width="1058" height="851" filterUnits="userSpaceOnUse" color-interpolation-filters="sRGB">
<feFlood flood-opacity="0" result="BackgroundImageFix"/>
<feColorMatrix in="SourceAlpha" type="matrix" values="0 0 0 0 0 0 0 0 0 0 0 0 0 0 0 0 0 0 127 0" result="hardAlpha"/>
<feOffset dy="4"/>
<feGaussianBlur stdDeviation="2"/>
<feComposite in2="hardAlpha" operator="out"/>
<feColorMatrix type="matrix" values="0 0 0 0 0 0 0 0 0 0 0 0 0 0 0 0 0 0 0.25 0"/>
<feBlend mode="normal" in2="BackgroundImageFix" result="effect1_dropShadow_154_217"/>
<feBlend mode="normal" in="SourceGraphic" in2="effect1_dropShadow_154_217" result="shape"/>
</filter>
<linearGradient id="paint0_linear_154_217" x1="-74.6765" y1="483.929" x2="-74.6765" y2="358.755" gradientUnits="userSpaceOnUse">
<stop stop-color="white" stop-opacity="0"/>
<stop offset="1" stop-color="#4DC2FF"/>
</linearGradient>
<linearGradient id="paint1_linear_154_217" x1="-21" y1="576.973" x2="-21" y2="327.735" gradientUnits="userSpaceOnUse">
<stop stop-color="white" stop-opacity="0"/>
<stop offset="1" stop-color="#4DC2FF"/>
</linearGradient>
<linearGradient id="paint2_linear_154_217" x1="5.83859" y1="638.984" x2="5.83859" y2="451.785" gradientUnits="userSpaceOnUse">
<stop stop-color="white" stop-opacity="0"/>
<stop offset="1" stop-color="#4DC2FF"/>
</linearGradient>
<linearGradient id="paint3_linear_154_217" x1="59.836" y1="421.377" x2="59.836" y2="235.302" gradientUnits="userSpaceOnUse">
<stop stop-color="white" stop-opacity="0"/>
<stop offset="1" stop-color="#4DC2FF"/>
</linearGradient>
<linearGradient id="paint4_linear_154_217" x1="248.026" y1="359.9" x2="248.026" y2="234.727" gradientUnits="userSpaceOnUse">
<stop stop-color="white" stop-opacity="0"/>
<stop offset="1" stop-color="#4DC2FF"/>
</linearGradient>
<linearGradient id="paint5_linear_154_217" x1="301.703" y1="452.944" x2="301.703" y2="203.706" gradientUnits="userSpaceOnUse">
<stop stop-color="white" stop-opacity="0"/>
<stop offset="1" stop-color="#4DC2FF"/>
</linearGradient>
<linearGradient id="paint6_linear_154_217" x1="328.541" y1="514.956" x2="328.541" y2="327.757" gradientUnits="userSpaceOnUse">
<stop stop-color="white" stop-opacity="0"/>
<stop offset="1" stop-color="#4DC2FF"/>
</linearGradient>
<linearGradient id="paint7_linear_154_217" x1="194.349" y1="514.956" x2="194.349" y2="420.786" gradientUnits="userSpaceOnUse">
<stop stop-color="white" stop-opacity="0"/>
<stop offset="1" stop-color="#4DC2FF"/>
</linearGradient>
<linearGradient id="paint8_linear_154_217" x1="59.5152" y1="421.926" x2="59.5152" y2="234.712" gradientUnits="userSpaceOnUse">
<stop stop-color="white" stop-opacity="0"/>
<stop offset="1" stop-color="#4DC2FF"/>
</linearGradient>
<linearGradient id="paint9_linear_154_217" x1="140.03" y1="483.95" x2="140.03" y2="327.757" gradientUnits="userSpaceOnUse">
<stop stop-color="white" stop-opacity="0"/>
<stop offset="1" stop-color="#4DC2FF"/>
</linearGradient>
<linearGradient id="paint10_linear_154_217" x1="-21" y1="483.95" x2="-21" y2="327.757" gradientUnits="userSpaceOnUse">
<stop stop-color="white" stop-opacity="0"/>
<stop offset="1" stop-color="#4DC2FF"/>
</linearGradient>
<linearGradient id="paint11_linear_154_217" x1="140.352" y1="173.853" x2="140.352" y2="48.6794" gradientUnits="userSpaceOnUse">
<stop stop-color="white" stop-opacity="0"/>
<stop offset="1" stop-color="#4DC2FF"/>
</linearGradient>
<linearGradient id="paint12_linear_154_217" x1="194.028" y1="266.898" x2="194.028" y2="17.6594" gradientUnits="userSpaceOnUse">
<stop stop-color="white" stop-opacity="0"/>
<stop offset="1" stop-color="#4DC2FF"/>
</linearGradient>
<linearGradient id="paint13_linear_154_217" x1="220.866" y1="328.909" x2="220.866" y2="141.71" gradientUnits="userSpaceOnUse">
<stop stop-color="white" stop-opacity="0"/>
<stop offset="1" stop-color="#4DC2FF"/>
</linearGradient>
<linearGradient id="paint14_linear_154_217" x1="86.6746" y1="328.909" x2="86.6746" y2="234.74" gradientUnits="userSpaceOnUse">
<stop stop-color="white" stop-opacity="0"/>
<stop offset="1" stop-color="#4DC2FF"/>
</linearGradient>
<linearGradient id="paint15_linear_154_217" x1="-48.1594" y1="235.879" x2="-48.1594" y2="48.6649" gradientUnits="userSpaceOnUse">
<stop stop-color="white" stop-opacity="0"/>
<stop offset="1" stop-color="#4DC2FF"/>
</linearGradient>
<linearGradient id="paint16_linear_154_217" x1="32.3558" y1="297.903" x2="32.3558" y2="141.71" gradientUnits="userSpaceOnUse">
<stop stop-color="white" stop-opacity="0"/>
<stop offset="1" stop-color="#4DC2FF"/>
</linearGradient>
<linearGradient id="paint17_linear_154_217" x1="302.024" y1="577.24" x2="302.024" y2="452.066" gradientUnits="userSpaceOnUse">
<stop stop-color="white" stop-opacity="0"/>
<stop offset="1" stop-color="#4DC2FF"/>
</linearGradient>
<linearGradient id="paint18_linear_154_217" x1="355.701" y1="670.285" x2="355.701" y2="421.046" gradientUnits="userSpaceOnUse">
<stop stop-color="white" stop-opacity="0"/>
<stop offset="1" stop-color="#4DC2FF"/>
</linearGradient>
<linearGradient id="paint19_linear_154_217" x1="382.539" y1="732.296" x2="382.539" y2="545.097" gradientUnits="userSpaceOnUse">
<stop stop-color="white" stop-opacity="0"/>
<stop offset="1" stop-color="#4DC2FF"/>
</linearGradient>
<linearGradient id="paint20_linear_154_217" x1="248.347" y1="732.296" x2="248.347" y2="638.127" gradientUnits="userSpaceOnUse">
<stop stop-color="white" stop-opacity="0"/>
<stop offset="1" stop-color="#4DC2FF"/>
</linearGradient>
<linearGradient id="paint21_linear_154_217" x1="113.513" y1="639.265" x2="113.513" y2="452.052" gradientUnits="userSpaceOnUse">
<stop stop-color="white" stop-opacity="0"/>
<stop offset="1" stop-color="#4DC2FF"/>
</linearGradient>
<linearGradient id="paint22_linear_154_217" x1="194.028" y1="701.29" x2="194.028" y2="545.097" gradientUnits="userSpaceOnUse">
<stop stop-color="white" stop-opacity="0"/>
<stop offset="1" stop-color="#4DC2FF"/>
</linearGradient>
<linearGradient id="paint23_linear_154_217" x1="32.998" y1="701.29" x2="32.998" y2="545.097" gradientUnits="userSpaceOnUse">
<stop stop-color="white" stop-opacity="0"/>
<stop offset="1" stop-color="#4DC2FF"/>
</linearGradient>
<linearGradient id="paint24_linear_154_217" x1="303.741" y1="721.186" x2="369.966" y2="438.585" gradientUnits="userSpaceOnUse">
<stop stop-color="white" stop-opacity="0"/>
<stop offset="1" stop-color="#4DC2FF"/>
</linearGradient>
<linearGradient id="paint25_linear_154_217" x1="-128.675" y1="763.329" x2="-128.675" y2="514.091" gradientUnits="userSpaceOnUse">
<stop stop-color="white" stop-opacity="0"/>
<stop offset="1" stop-color="#4DC2FF"/>
</linearGradient>
<linearGradient id="paint26_linear_154_217" x1="-101.836" y1="825.34" x2="-101.836" y2="638.141" gradientUnits="userSpaceOnUse">
<stop stop-color="white" stop-opacity="0"/>
<stop offset="1" stop-color="#4DC2FF"/>
</linearGradient>
</defs>
</svg>
