<svg width="725" height="582" viewBox="0 0 725 582" fill="none" xmlns="http://www.w3.org/2000/svg">
<path d="M343.969 334.1C343.901 334.1 343.833 334.083 343.772 334.048L269.681 291.24C269.547 291.177 269.451 291.042 269.451 290.886V248.075C269.451 247.934 269.526 247.805 269.647 247.734C269.769 247.664 269.918 247.664 270.04 247.734L381.228 311.962C381.35 312.032 381.424 312.162 381.424 312.302C381.424 312.443 381.35 312.572 381.228 312.643L344.165 334.049C344.105 334.084 344.037 334.101 343.969 334.101V334.1ZM270.236 290.653L343.969 333.253L380.245 312.301L270.236 248.755V290.653Z" fill="url(#paint0_linear_2025_8505)"/>
<path d="M306.906 398.337C306.838 398.337 306.771 398.32 306.71 398.285L269.647 376.869C269.526 376.799 269.451 376.67 269.451 376.529C269.451 376.388 269.526 376.259 269.647 376.188L380.245 312.301L269.647 248.415C269.526 248.344 269.451 248.215 269.451 248.074C269.451 247.933 269.526 247.793 269.647 247.723L306.71 226.318C306.831 226.248 306.981 226.248 307.103 226.318L455.353 311.961C455.474 312.032 455.549 312.161 455.549 312.302C455.549 312.442 455.474 312.572 455.353 312.642L307.103 398.285C307.042 398.32 306.974 398.338 306.906 398.338V398.337ZM270.629 376.529L306.906 397.49L454.371 312.301L306.906 227.112L270.62 248.069L381.227 311.961C381.349 312.031 381.424 312.161 381.424 312.301C381.424 312.442 381.349 312.571 381.227 312.642L270.629 376.529H270.629Z" fill="url(#paint1_linear_2025_8505)"/>
<path d="M306.906 441.149C306.838 441.149 306.771 441.132 306.71 441.097C306.588 441.026 306.513 440.897 306.513 440.756V397.944C306.513 397.803 306.588 397.674 306.71 397.604L454.96 311.961C455.081 311.89 455.231 311.89 455.353 311.961C455.474 312.031 455.549 312.161 455.549 312.301V355.123C455.549 355.291 455.444 355.434 455.295 355.49L307.103 441.096C307.042 441.131 306.975 441.149 306.907 441.149L306.906 441.149ZM307.299 398.171V440.076L454.763 354.89V312.982L307.299 398.171Z" fill="url(#paint2_linear_2025_8505)"/>
<path d="M306.906 441.149C306.838 441.149 306.771 441.132 306.71 441.097L269.681 419.704C269.547 419.641 269.451 419.506 269.451 419.35V376.529C269.451 376.388 269.526 376.259 269.648 376.188C269.769 376.118 269.919 376.118 270.041 376.188L307.103 397.604C307.225 397.674 307.3 397.804 307.3 397.945V440.756C307.3 440.897 307.225 441.026 307.103 441.097C307.042 441.132 306.975 441.149 306.907 441.149H306.906ZM270.236 419.118L306.514 440.076V398.172L270.236 377.21V419.118Z" fill="url(#paint3_linear_2025_8505)"/>
<path d="M195.285 376.922C195.216 376.922 195.139 376.904 195.079 376.869L83.891 312.642C83.7694 312.571 83.6945 312.442 83.6945 312.301C83.6945 312.161 83.7694 312.02 83.891 311.951L195.079 247.724C195.2 247.653 195.35 247.653 195.472 247.724L306.659 311.961C306.781 312.032 306.856 312.161 306.856 312.302C306.856 312.442 306.781 312.572 306.659 312.642L195.482 376.87C195.422 376.905 195.354 376.923 195.285 376.923V376.922ZM84.8643 312.297L195.28 376.078L305.677 312.302L195.275 248.518L84.8643 312.296V312.297Z" fill="url(#paint4_linear_2025_8505)"/>
<path d="M195.275 419.744C195.207 419.744 195.14 419.726 195.079 419.691C194.957 419.621 194.882 419.491 194.882 419.35V376.529C194.882 376.361 194.988 376.218 195.136 376.161L306.266 311.961C306.388 311.89 306.537 311.89 306.659 311.961C306.781 312.031 306.856 312.161 306.856 312.301V355.123C306.856 355.263 306.781 355.393 306.659 355.463L195.472 419.691C195.411 419.726 195.343 419.744 195.275 419.744ZM195.668 376.762V418.67L306.07 354.896V312.982L195.668 376.762Z" fill="url(#paint5_linear_2025_8505)"/>
<path d="M195.275 419.744C195.207 419.744 195.14 419.726 195.079 419.691L83.891 355.463C83.7694 355.393 83.6945 355.263 83.6945 355.123V312.301C83.6945 312.161 83.7694 312.031 83.891 311.961C84.0126 311.89 84.162 311.89 84.284 311.961L195.472 376.188C195.593 376.259 195.668 376.388 195.668 376.529V419.35C195.668 419.491 195.593 419.621 195.472 419.691C195.411 419.726 195.343 419.744 195.275 419.744ZM84.4806 354.896L194.883 418.67V376.756L84.4806 312.982V354.896Z" fill="url(#paint6_linear_2025_8505)"/>
<g opacity="0.4">
<path d="M9.74078 440.955V440.965L120.928 505.193H120.939L232.116 440.965L120.928 376.728L9.74078 440.955Z" fill="url(#paint7_linear_2025_8505)"/>
</g>
<g opacity="0.4">
<path d="M307.128 226.677V226.688L418.315 290.915H418.326L529.503 226.688L418.315 162.451L307.128 226.677Z" fill="url(#paint8_linear_2025_8505)"/>
</g>
<path d="M566.787 248.472C566.72 248.472 566.652 248.454 566.591 248.419L492.499 205.611C492.365 205.548 492.269 205.413 492.269 205.257V162.446C492.269 162.305 492.344 162.176 492.466 162.106C492.587 162.035 492.737 162.035 492.859 162.106L604.046 226.333C604.168 226.403 604.243 226.533 604.243 226.673C604.243 226.814 604.168 226.943 604.046 227.014L566.984 248.419C566.923 248.454 566.855 248.472 566.787 248.472ZM493.055 205.025L566.787 247.625L603.064 226.674L493.055 163.127V205.025Z" fill="url(#paint9_linear_2025_8505)"/>
<path d="M529.725 312.709C529.657 312.709 529.589 312.691 529.528 312.656L492.466 291.241C492.344 291.171 492.27 291.041 492.27 290.901C492.27 290.76 492.344 290.63 492.466 290.56L603.064 226.673L492.466 162.786C492.344 162.716 492.27 162.586 492.27 162.446C492.27 162.305 492.344 162.165 492.466 162.095L529.528 140.689C529.65 140.619 529.8 140.619 529.921 140.689L678.171 226.333C678.293 226.403 678.368 226.533 678.368 226.673C678.368 226.814 678.293 226.943 678.171 227.014L529.921 312.657C529.861 312.692 529.793 312.709 529.725 312.709ZM493.448 290.901L529.724 311.862L677.189 226.673L529.724 141.483L493.439 162.44L604.046 226.333C604.168 226.403 604.243 226.533 604.243 226.673C604.243 226.814 604.168 226.943 604.046 227.014L493.448 290.901V290.901Z" fill="url(#paint10_linear_2025_8505)"/>
<path d="M529.725 355.521C529.657 355.521 529.589 355.503 529.528 355.468C529.407 355.398 529.332 355.268 529.332 355.128V312.316C529.332 312.175 529.407 312.045 529.528 311.975L677.778 226.332C677.9 226.262 678.05 226.262 678.171 226.332C678.293 226.403 678.368 226.532 678.368 226.673V269.494C678.368 269.662 678.263 269.806 678.114 269.862L529.921 355.468C529.861 355.503 529.793 355.521 529.725 355.521V355.521ZM530.117 312.543V354.447L677.582 269.262V227.354L530.117 312.543Z" fill="url(#paint11_linear_2025_8505)"/>
<path d="M529.725 355.521C529.657 355.521 529.589 355.503 529.528 355.468L492.499 334.076C492.365 334.012 492.27 333.878 492.27 333.722V290.901C492.27 290.76 492.344 290.63 492.466 290.56C492.588 290.49 492.737 290.49 492.859 290.56L529.921 311.976C530.043 312.046 530.118 312.175 530.118 312.316V355.128C530.118 355.268 530.043 355.398 529.921 355.468C529.861 355.503 529.793 355.521 529.725 355.521ZM493.055 333.49L529.332 354.447V312.543L493.055 291.582V333.49Z" fill="url(#paint12_linear_2025_8505)"/>
<path d="M418.104 291.294C418.035 291.294 417.957 291.276 417.897 291.241L306.71 227.014C306.588 226.943 306.513 226.814 306.513 226.673C306.513 226.533 306.588 226.392 306.71 226.323L417.897 162.096C418.019 162.025 418.169 162.025 418.29 162.096L529.478 226.333C529.6 226.404 529.674 226.533 529.674 226.674C529.674 226.814 529.6 226.944 529.478 227.014L418.301 291.242C418.241 291.276 418.173 291.294 418.104 291.294ZM307.683 226.668L418.098 290.45L528.496 226.673L418.094 162.89L307.683 226.668Z" fill="url(#paint13_linear_2025_8505)"/>
<path d="M418.094 334.115C418.026 334.115 417.958 334.098 417.897 334.062C417.776 333.992 417.701 333.863 417.701 333.722V290.901C417.701 290.733 417.806 290.589 417.955 290.533L529.084 226.333C529.206 226.262 529.356 226.262 529.477 226.333C529.599 226.403 529.674 226.533 529.674 226.673V269.495C529.674 269.635 529.599 269.765 529.477 269.835L418.29 334.062C418.229 334.098 418.161 334.115 418.093 334.115H418.094ZM418.486 291.134V333.041L528.888 269.268V227.354L418.486 291.134Z" fill="url(#paint14_linear_2025_8505)"/>
<path d="M418.094 334.115C418.026 334.115 417.958 334.098 417.897 334.062L306.71 269.835C306.588 269.765 306.513 269.635 306.513 269.495V226.673C306.513 226.533 306.588 226.403 306.71 226.333C306.831 226.262 306.981 226.262 307.103 226.333L418.29 290.56C418.412 290.63 418.487 290.76 418.487 290.901V333.722C418.487 333.863 418.412 333.992 418.29 334.062C418.23 334.098 418.162 334.115 418.094 334.115ZM307.299 269.268L417.701 333.041V291.128L307.299 227.354V269.268Z" fill="url(#paint15_linear_2025_8505)"/>
<path d="M492.441 120.027C492.373 120.027 492.305 120.009 492.244 119.974L418.153 77.1664C418.019 77.103 417.923 76.9683 417.923 76.8124V34.0012C417.923 33.8606 417.998 33.731 418.119 33.6607C418.241 33.5904 418.391 33.5904 418.512 33.6607L529.7 97.888C529.821 97.9583 529.896 98.0878 529.896 98.2285C529.896 98.3691 529.821 98.4986 529.7 98.569L492.638 119.974C492.577 120.01 492.509 120.027 492.441 120.027L492.441 120.027ZM418.708 76.5797L492.441 119.18L528.717 98.2285L418.708 34.6817V76.5797Z" fill="url(#paint16_linear_2025_8505)"/>
<path d="M455.378 184.264C455.31 184.264 455.242 184.246 455.181 184.211L418.119 162.796C417.997 162.725 417.922 162.596 417.922 162.455C417.922 162.315 417.997 162.185 418.119 162.115L528.717 98.2275L418.119 34.3408C417.997 34.2705 417.922 34.1409 417.922 34.0003C417.922 33.8596 417.997 33.7195 418.119 33.6496L455.181 12.2442C455.303 12.1739 455.453 12.1739 455.574 12.2442L603.824 97.8875C603.946 97.9578 604.021 98.0874 604.021 98.228C604.021 98.3686 603.946 98.4982 603.824 98.5685L455.574 184.211C455.514 184.246 455.446 184.264 455.378 184.264ZM419.101 162.456L455.378 183.417L602.843 98.2285L455.378 13.039L419.092 33.9961L529.7 97.8884C529.821 97.9587 529.896 98.0883 529.896 98.2289C529.896 98.3696 529.821 98.4991 529.7 98.5694L419.101 162.457V162.456Z" fill="url(#paint17_linear_2025_8505)"/>
<path d="M455.378 227.076C455.31 227.076 455.242 227.058 455.181 227.023C455.06 226.953 454.985 226.823 454.985 226.683V183.871C454.985 183.73 455.06 183.601 455.181 183.53L603.431 97.8875C603.553 97.8172 603.703 97.8172 603.824 97.8875C603.946 97.9578 604.021 98.0873 604.021 98.228V141.049C604.021 141.217 603.915 141.361 603.767 141.417L455.574 227.023C455.514 227.058 455.446 227.076 455.378 227.076ZM455.771 184.098V226.002L603.235 140.817V98.9095L455.771 184.098V184.098Z" fill="url(#paint18_linear_2025_8505)"/>
<path d="M455.378 227.076C455.311 227.076 455.243 227.058 455.182 227.023L418.153 205.631C418.019 205.567 417.922 205.433 417.922 205.277V162.455C417.922 162.315 417.997 162.185 418.119 162.115C418.24 162.044 418.39 162.044 418.512 162.115L455.574 183.53C455.696 183.601 455.771 183.73 455.771 183.871V226.683C455.771 226.823 455.696 226.953 455.574 227.023C455.514 227.058 455.446 227.076 455.378 227.076ZM418.708 205.044L454.985 226.002V184.098L418.708 163.136V205.044Z" fill="url(#paint19_linear_2025_8505)"/>
<path d="M343.757 162.849C343.688 162.849 343.611 162.831 343.551 162.796L232.363 98.569C232.241 98.4986 232.167 98.3691 232.167 98.2285C232.167 98.0878 232.241 97.9476 232.363 97.8778L343.551 33.651C343.672 33.5807 343.822 33.5807 343.944 33.651L455.131 97.8884C455.253 97.9587 455.328 98.0883 455.328 98.2289C455.328 98.3696 455.253 98.4991 455.131 98.5694L343.954 162.797C343.894 162.831 343.826 162.849 343.757 162.849V162.849ZM233.336 98.2229L343.752 162.005L454.149 98.228L343.747 34.4444L233.336 98.2229Z" fill="url(#paint20_linear_2025_8505)"/>
<path d="M343.747 205.67C343.679 205.67 343.612 205.652 343.551 205.617C343.429 205.547 343.354 205.417 343.354 205.277V162.455C343.354 162.287 343.46 162.144 343.608 162.087L454.738 97.8875C454.859 97.8172 455.009 97.8172 455.131 97.8875C455.252 97.9578 455.327 98.0873 455.327 98.228V141.049C455.327 141.19 455.252 141.32 455.131 141.39L343.943 205.617C343.882 205.652 343.815 205.67 343.747 205.67H343.747ZM344.14 162.688V204.596L454.542 140.823V98.909L344.14 162.688Z" fill="url(#paint21_linear_2025_8505)"/>
<path d="M343.747 205.67C343.679 205.67 343.612 205.652 343.551 205.617L232.363 141.39C232.241 141.32 232.167 141.19 232.167 141.049V98.228C232.167 98.0873 232.241 97.9578 232.363 97.8875C232.485 97.8172 232.634 97.8172 232.756 97.8875L343.944 162.115C344.065 162.185 344.14 162.315 344.14 162.455V205.277C344.14 205.417 344.065 205.547 343.944 205.617C343.883 205.652 343.815 205.67 343.747 205.67ZM232.952 140.823L343.354 204.596V162.682L232.952 98.909V140.823Z" fill="url(#paint22_linear_2025_8505)"/>
<path d="M604.072 398.522C604.004 398.522 603.936 398.504 603.875 398.469L529.784 355.661C529.65 355.597 529.554 355.463 529.554 355.307V312.496C529.554 312.355 529.629 312.225 529.75 312.155C529.872 312.085 530.022 312.085 530.143 312.155L641.331 376.382C641.453 376.453 641.527 376.582 641.527 376.723C641.527 376.864 641.453 376.993 641.331 377.063L604.269 398.469C604.208 398.504 604.14 398.522 604.072 398.522ZM530.339 355.075L604.072 397.675L640.348 376.723L530.339 313.177V355.075Z" fill="url(#paint23_linear_2025_8505)"/>
<path d="M567.009 462.759C566.941 462.759 566.873 462.741 566.812 462.706L529.75 441.291C529.628 441.22 529.553 441.091 529.553 440.95C529.553 440.809 529.628 440.68 529.75 440.61L640.348 376.723L529.75 312.836C529.628 312.766 529.553 312.636 529.553 312.496C529.553 312.355 529.628 312.215 529.75 312.144L566.812 290.739C566.934 290.669 567.084 290.669 567.205 290.739L715.455 376.382C715.577 376.453 715.652 376.582 715.652 376.723C715.652 376.864 715.577 376.993 715.455 377.063L567.205 462.706C567.145 462.741 567.077 462.759 567.009 462.759ZM530.732 440.951L567.009 461.912L714.474 376.723L567.009 291.534L530.723 312.491L641.33 376.383C641.452 376.454 641.527 376.583 641.527 376.724C641.527 376.864 641.452 376.994 641.33 377.064L530.732 440.951Z" fill="url(#paint24_linear_2025_8505)"/>
<path d="M567.009 505.571C566.941 505.571 566.873 505.553 566.812 505.518C566.691 505.448 566.616 505.318 566.616 505.177V462.366C566.616 462.225 566.691 462.095 566.812 462.025L715.062 376.382C715.184 376.312 715.334 376.312 715.455 376.382C715.577 376.453 715.652 376.582 715.652 376.723V419.544C715.652 419.713 715.546 419.856 715.398 419.912L567.205 505.518C567.145 505.553 567.077 505.571 567.009 505.571ZM567.402 462.593V504.497L714.866 419.312V377.403L567.402 462.592V462.593Z" fill="url(#paint25_linear_2025_8505)"/>
<path d="M567.009 505.571C566.942 505.571 566.874 505.553 566.813 505.518L529.784 484.125C529.649 484.062 529.553 483.927 529.553 483.772V440.95C529.553 440.809 529.628 440.68 529.75 440.61C529.871 440.539 530.021 440.539 530.143 440.61L567.205 462.025C567.327 462.095 567.402 462.225 567.402 462.366V505.177C567.402 505.318 567.327 505.448 567.205 505.518C567.145 505.553 567.077 505.571 567.009 505.571ZM530.339 483.539L566.616 504.497V462.593L530.339 441.631V483.539Z" fill="url(#paint26_linear_2025_8505)"/>
<path d="M455.388 441.343C455.319 441.343 455.241 441.325 455.182 441.291L343.994 377.063C343.872 376.993 343.797 376.864 343.797 376.723C343.797 376.582 343.872 376.442 343.994 376.372L455.182 312.145C455.303 312.075 455.453 312.075 455.575 312.145L566.762 376.382C566.883 376.453 566.958 376.582 566.958 376.723C566.958 376.864 566.883 376.993 566.762 377.063L455.584 441.291C455.525 441.325 455.457 441.343 455.388 441.343ZM344.967 376.718L455.383 440.499L565.78 376.723L455.378 312.939L344.966 376.718H344.967Z" fill="url(#paint27_linear_2025_8505)"/>
<path d="M455.378 484.165C455.311 484.165 455.243 484.147 455.182 484.112C455.06 484.042 454.985 483.912 454.985 483.771V440.95C454.985 440.782 455.091 440.639 455.238 440.583L566.369 376.382C566.49 376.312 566.64 376.312 566.762 376.382C566.883 376.453 566.958 376.582 566.958 376.723V419.544C566.958 419.685 566.883 419.814 566.762 419.885L455.575 484.112C455.514 484.147 455.446 484.165 455.378 484.165ZM455.771 441.183V483.091L566.173 419.318V377.404L455.771 441.183Z" fill="url(#paint28_linear_2025_8505)"/>
<path d="M455.378 484.165C455.311 484.165 455.243 484.147 455.182 484.112L343.994 419.885C343.872 419.814 343.797 419.685 343.797 419.544V376.723C343.797 376.582 343.872 376.453 343.994 376.382C344.116 376.312 344.265 376.312 344.387 376.382L455.575 440.61C455.696 440.68 455.771 440.809 455.771 440.95V483.771C455.771 483.912 455.696 484.042 455.575 484.112C455.514 484.147 455.446 484.165 455.378 484.165ZM344.583 419.318L454.985 483.091V441.177L344.583 377.404V419.318Z" fill="url(#paint29_linear_2025_8505)"/>
<g opacity="0.4">
<path d="M529.946 440.96V440.95L641.134 376.722L529.946 312.495L567.009 291.08L715.259 376.722L567.009 462.366L529.946 440.96Z" fill="url(#paint30_linear_2025_8505)"/>
</g>
<path d="M269.622 462.759C269.554 462.759 269.486 462.741 269.425 462.706L195.334 419.899C195.2 419.835 195.104 419.7 195.104 419.545V376.734C195.104 376.593 195.179 376.463 195.301 376.393C195.422 376.323 195.572 376.323 195.694 376.393L306.881 440.62C307.003 440.691 307.078 440.82 307.078 440.961C307.078 441.101 307.003 441.231 306.881 441.301L269.819 462.707C269.758 462.742 269.69 462.759 269.622 462.759L269.622 462.759ZM195.89 419.312L269.622 461.912L305.899 440.96L195.89 377.414V419.312Z" fill="url(#paint31_linear_2025_8505)"/>
<path d="M232.559 526.996C232.491 526.996 232.424 526.979 232.363 526.944L195.301 505.528C195.179 505.458 195.104 505.328 195.104 505.188C195.104 505.047 195.179 504.917 195.301 504.847L305.899 440.96L195.301 377.074C195.179 377.003 195.104 376.874 195.104 376.733C195.104 376.592 195.179 376.452 195.301 376.382L232.363 354.977C232.485 354.906 232.634 354.906 232.756 354.977L381.006 440.62C381.128 440.69 381.202 440.82 381.202 440.96C381.202 441.101 381.128 441.23 381.006 441.301L232.756 526.944C232.695 526.979 232.627 526.996 232.559 526.996ZM196.283 505.188L232.56 526.149L380.024 440.96L232.56 355.771L196.274 376.728L306.881 440.62C307.003 440.691 307.078 440.82 307.078 440.961C307.078 441.101 307.003 441.231 306.881 441.301L196.283 505.188Z" fill="url(#paint32_linear_2025_8505)"/>
<path d="M232.559 569.808C232.491 569.808 232.424 569.79 232.363 569.755C232.241 569.685 232.166 569.555 232.166 569.415V526.603C232.166 526.463 232.241 526.333 232.363 526.263L380.613 440.62C380.735 440.549 380.884 440.549 381.006 440.62C381.128 440.69 381.202 440.82 381.202 440.96V483.782C381.202 483.95 381.097 484.093 380.949 484.15L232.756 569.755C232.695 569.79 232.628 569.808 232.56 569.808H232.559ZM232.952 526.83V568.734L380.417 483.549V441.64L232.952 526.83Z" fill="url(#paint33_linear_2025_8505)"/>
<path d="M232.559 569.808C232.491 569.808 232.424 569.79 232.363 569.755L195.334 548.363C195.2 548.3 195.104 548.165 195.104 548.009V505.188C195.104 505.047 195.179 504.918 195.301 504.848C195.422 504.777 195.572 504.777 195.694 504.848L232.756 526.263C232.878 526.333 232.952 526.463 232.952 526.604V569.415C232.952 569.556 232.878 569.686 232.756 569.756C232.695 569.791 232.627 569.808 232.559 569.808ZM195.89 547.776L232.167 568.734V526.83L195.89 505.868V547.776Z" fill="url(#paint34_linear_2025_8505)"/>
<path d="M120.939 505.581C120.87 505.581 120.792 505.563 120.732 505.528L9.54477 441.301C9.42317 441.23 9.34827 441.101 9.34827 440.96C9.34827 440.82 9.42317 440.679 9.54477 440.609L120.732 376.382C120.854 376.312 121.003 376.312 121.125 376.382L232.313 440.62C232.435 440.69 232.51 440.82 232.51 440.96C232.51 441.101 232.435 441.23 232.313 441.301L121.136 505.528C121.076 505.563 121.008 505.581 120.939 505.581H120.939ZM10.5171 440.955L120.933 504.736L231.33 440.96L120.928 377.177L10.5171 440.955Z" fill="url(#paint35_linear_2025_8505)"/>
<path d="M120.928 548.402C120.86 548.402 120.793 548.385 120.732 548.349C120.61 548.279 120.535 548.15 120.535 548.009V505.188C120.535 505.02 120.641 504.876 120.789 504.82L231.919 440.62C232.041 440.549 232.19 440.549 232.312 440.62C232.434 440.69 232.509 440.82 232.509 440.96V483.782C232.509 483.922 232.434 484.052 232.312 484.122L121.124 548.349C121.063 548.385 120.996 548.402 120.928 548.402H120.928ZM121.321 505.42V547.328L231.723 483.555V441.641L121.321 505.42Z" fill="url(#paint36_linear_2025_8505)"/>
<path d="M120.928 548.402C120.86 548.402 120.793 548.385 120.732 548.349L9.54429 484.122C9.42268 484.052 9.34778 483.922 9.34778 483.782V440.96C9.34778 440.82 9.42268 440.69 9.54429 440.62C9.66589 440.549 9.81524 440.549 9.9373 440.62L121.125 504.847C121.247 504.917 121.321 505.047 121.321 505.188V548.009C121.321 548.15 121.247 548.279 121.125 548.349C121.064 548.385 120.996 548.402 120.928 548.402ZM10.1338 483.555L120.536 547.328V505.415L10.1338 441.641V483.555Z" fill="url(#paint37_linear_2025_8505)"/>
<defs>
<linearGradient id="paint0_linear_2025_8505" x1="325.438" y1="334.1" x2="325.438" y2="247.682" gradientUnits="userSpaceOnUse">
<stop stop-color="white" stop-opacity="0"/>
<stop offset="1" stop-color="#4DC2FF"/>
</linearGradient>
<linearGradient id="paint1_linear_2025_8505" x1="362.5" y1="398.337" x2="362.5" y2="226.266" gradientUnits="userSpaceOnUse">
<stop stop-color="white" stop-opacity="0"/>
<stop offset="1" stop-color="#4DC2FF"/>
</linearGradient>
<linearGradient id="paint2_linear_2025_8505" x1="381.031" y1="441.149" x2="381.031" y2="311.908" gradientUnits="userSpaceOnUse">
<stop stop-color="white" stop-opacity="0"/>
<stop offset="1" stop-color="#4DC2FF"/>
</linearGradient>
<linearGradient id="paint3_linear_2025_8505" x1="288.375" y1="441.149" x2="288.375" y2="376.136" gradientUnits="userSpaceOnUse">
<stop stop-color="white" stop-opacity="0"/>
<stop offset="1" stop-color="#4DC2FF"/>
</linearGradient>
<linearGradient id="paint4_linear_2025_8505" x1="195.275" y1="376.922" x2="195.275" y2="247.672" gradientUnits="userSpaceOnUse">
<stop stop-color="white" stop-opacity="0"/>
<stop offset="1" stop-color="#4DC2FF"/>
</linearGradient>
<linearGradient id="paint5_linear_2025_8505" x1="250.869" y1="419.744" x2="250.869" y2="311.908" gradientUnits="userSpaceOnUse">
<stop stop-color="white" stop-opacity="0"/>
<stop offset="1" stop-color="#4DC2FF"/>
</linearGradient>
<linearGradient id="paint6_linear_2025_8505" x1="139.682" y1="419.744" x2="139.682" y2="311.908" gradientUnits="userSpaceOnUse">
<stop stop-color="white" stop-opacity="0"/>
<stop offset="1" stop-color="#4DC2FF"/>
</linearGradient>
<linearGradient id="paint7_linear_2025_8505" x1="120.928" y1="505.193" x2="120.928" y2="376.727" gradientUnits="userSpaceOnUse">
<stop stop-color="white" stop-opacity="0"/>
<stop offset="1" stop-color="#4DC2FF"/>
</linearGradient>
<linearGradient id="paint8_linear_2025_8505" x1="418.315" y1="290.915" x2="418.315" y2="162.45" gradientUnits="userSpaceOnUse">
<stop stop-color="white" stop-opacity="0"/>
<stop offset="1" stop-color="#4DC2FF"/>
</linearGradient>
<linearGradient id="paint9_linear_2025_8505" x1="548.256" y1="248.472" x2="548.256" y2="162.053" gradientUnits="userSpaceOnUse">
<stop stop-color="white" stop-opacity="0"/>
<stop offset="1" stop-color="#4DC2FF"/>
</linearGradient>
<linearGradient id="paint10_linear_2025_8505" x1="585.319" y1="312.709" x2="585.319" y2="140.637" gradientUnits="userSpaceOnUse">
<stop stop-color="white" stop-opacity="0"/>
<stop offset="1" stop-color="#4DC2FF"/>
</linearGradient>
<linearGradient id="paint11_linear_2025_8505" x1="603.85" y1="355.521" x2="603.85" y2="226.28" gradientUnits="userSpaceOnUse">
<stop stop-color="white" stop-opacity="0"/>
<stop offset="1" stop-color="#4DC2FF"/>
</linearGradient>
<linearGradient id="paint12_linear_2025_8505" x1="511.193" y1="355.521" x2="511.193" y2="290.507" gradientUnits="userSpaceOnUse">
<stop stop-color="white" stop-opacity="0"/>
<stop offset="1" stop-color="#4DC2FF"/>
</linearGradient>
<linearGradient id="paint13_linear_2025_8505" x1="418.094" y1="291.294" x2="418.094" y2="162.043" gradientUnits="userSpaceOnUse">
<stop stop-color="white" stop-opacity="0"/>
<stop offset="1" stop-color="#4DC2FF"/>
</linearGradient>
<linearGradient id="paint14_linear_2025_8505" x1="473.688" y1="334.115" x2="473.688" y2="226.28" gradientUnits="userSpaceOnUse">
<stop stop-color="white" stop-opacity="0"/>
<stop offset="1" stop-color="#4DC2FF"/>
</linearGradient>
<linearGradient id="paint15_linear_2025_8505" x1="362.5" y1="334.115" x2="362.5" y2="226.28" gradientUnits="userSpaceOnUse">
<stop stop-color="white" stop-opacity="0"/>
<stop offset="1" stop-color="#4DC2FF"/>
</linearGradient>
<linearGradient id="paint16_linear_2025_8505" x1="473.91" y1="120.027" x2="473.91" y2="33.608" gradientUnits="userSpaceOnUse">
<stop stop-color="white" stop-opacity="0"/>
<stop offset="1" stop-color="#4DC2FF"/>
</linearGradient>
<linearGradient id="paint17_linear_2025_8505" x1="510.972" y1="184.264" x2="510.972" y2="12.1919" gradientUnits="userSpaceOnUse">
<stop stop-color="white" stop-opacity="0"/>
<stop offset="1" stop-color="#4DC2FF"/>
</linearGradient>
<linearGradient id="paint18_linear_2025_8505" x1="529.503" y1="227.076" x2="529.503" y2="97.8352" gradientUnits="userSpaceOnUse">
<stop stop-color="white" stop-opacity="0"/>
<stop offset="1" stop-color="#4DC2FF"/>
</linearGradient>
<linearGradient id="paint19_linear_2025_8505" x1="436.847" y1="227.076" x2="436.847" y2="162.062" gradientUnits="userSpaceOnUse">
<stop stop-color="white" stop-opacity="0"/>
<stop offset="1" stop-color="#4DC2FF"/>
</linearGradient>
<linearGradient id="paint20_linear_2025_8505" x1="343.747" y1="162.849" x2="343.747" y2="33.5978" gradientUnits="userSpaceOnUse">
<stop stop-color="white" stop-opacity="0"/>
<stop offset="1" stop-color="#4DC2FF"/>
</linearGradient>
<linearGradient id="paint21_linear_2025_8505" x1="399.341" y1="205.67" x2="399.341" y2="97.8352" gradientUnits="userSpaceOnUse">
<stop stop-color="white" stop-opacity="0"/>
<stop offset="1" stop-color="#4DC2FF"/>
</linearGradient>
<linearGradient id="paint22_linear_2025_8505" x1="288.153" y1="205.67" x2="288.153" y2="97.8352" gradientUnits="userSpaceOnUse">
<stop stop-color="white" stop-opacity="0"/>
<stop offset="1" stop-color="#4DC2FF"/>
</linearGradient>
<linearGradient id="paint23_linear_2025_8505" x1="585.54" y1="398.521" x2="585.54" y2="312.103" gradientUnits="userSpaceOnUse">
<stop stop-color="white" stop-opacity="0"/>
<stop offset="1" stop-color="#4DC2FF"/>
</linearGradient>
<linearGradient id="paint24_linear_2025_8505" x1="622.603" y1="462.759" x2="622.603" y2="290.687" gradientUnits="userSpaceOnUse">
<stop stop-color="white" stop-opacity="0"/>
<stop offset="1" stop-color="#4DC2FF"/>
</linearGradient>
<linearGradient id="paint25_linear_2025_8505" x1="641.134" y1="505.571" x2="641.134" y2="376.33" gradientUnits="userSpaceOnUse">
<stop stop-color="white" stop-opacity="0"/>
<stop offset="1" stop-color="#4DC2FF"/>
</linearGradient>
<linearGradient id="paint26_linear_2025_8505" x1="548.478" y1="505.571" x2="548.478" y2="440.557" gradientUnits="userSpaceOnUse">
<stop stop-color="white" stop-opacity="0"/>
<stop offset="1" stop-color="#4DC2FF"/>
</linearGradient>
<linearGradient id="paint27_linear_2025_8505" x1="455.378" y1="441.343" x2="455.378" y2="312.093" gradientUnits="userSpaceOnUse">
<stop stop-color="white" stop-opacity="0"/>
<stop offset="1" stop-color="#4DC2FF"/>
</linearGradient>
<linearGradient id="paint28_linear_2025_8505" x1="510.972" y1="484.165" x2="510.972" y2="376.33" gradientUnits="userSpaceOnUse">
<stop stop-color="white" stop-opacity="0"/>
<stop offset="1" stop-color="#4DC2FF"/>
</linearGradient>
<linearGradient id="paint29_linear_2025_8505" x1="399.784" y1="484.165" x2="399.784" y2="376.33" gradientUnits="userSpaceOnUse">
<stop stop-color="white" stop-opacity="0"/>
<stop offset="1" stop-color="#4DC2FF"/>
</linearGradient>
<linearGradient id="paint30_linear_2025_8505" x1="586.726" y1="497.9" x2="632.442" y2="302.793" gradientUnits="userSpaceOnUse">
<stop stop-color="white" stop-opacity="0"/>
<stop offset="1" stop-color="#4DC2FF"/>
</linearGradient>
<linearGradient id="paint31_linear_2025_8505" x1="251.091" y1="462.758" x2="251.091" y2="376.34" gradientUnits="userSpaceOnUse">
<stop stop-color="white" stop-opacity="0"/>
<stop offset="1" stop-color="#4DC2FF"/>
</linearGradient>
<linearGradient id="paint32_linear_2025_8505" x1="288.153" y1="526.996" x2="288.153" y2="354.924" gradientUnits="userSpaceOnUse">
<stop stop-color="white" stop-opacity="0"/>
<stop offset="1" stop-color="#4DC2FF"/>
</linearGradient>
<linearGradient id="paint33_linear_2025_8505" x1="306.685" y1="569.808" x2="306.685" y2="440.567" gradientUnits="userSpaceOnUse">
<stop stop-color="white" stop-opacity="0"/>
<stop offset="1" stop-color="#4DC2FF"/>
</linearGradient>
<linearGradient id="paint34_linear_2025_8505" x1="214.029" y1="569.808" x2="214.029" y2="504.794" gradientUnits="userSpaceOnUse">
<stop stop-color="white" stop-opacity="0"/>
<stop offset="1" stop-color="#4DC2FF"/>
</linearGradient>
<linearGradient id="paint35_linear_2025_8505" x1="120.928" y1="505.58" x2="120.928" y2="376.33" gradientUnits="userSpaceOnUse">
<stop stop-color="white" stop-opacity="0"/>
<stop offset="1" stop-color="#4DC2FF"/>
</linearGradient>
<linearGradient id="paint36_linear_2025_8505" x1="176.522" y1="548.402" x2="176.522" y2="440.567" gradientUnits="userSpaceOnUse">
<stop stop-color="white" stop-opacity="0"/>
<stop offset="1" stop-color="#4DC2FF"/>
</linearGradient>
<linearGradient id="paint37_linear_2025_8505" x1="65.3346" y1="548.402" x2="65.3346" y2="440.567" gradientUnits="userSpaceOnUse">
<stop stop-color="white" stop-opacity="0"/>
<stop offset="1" stop-color="#4DC2FF"/>
</linearGradient>
</defs>
</svg>
